# xmcd
#
# Track frame offsets: 
#        150
#        12521
#        23639
#        37125
#        49218
#        63429
#        76469
#        90429
#        106228
#        117680
#        139079
#        149556
#        161175
#        186587
#        200519
#        218575
#        235070
#
# Disc length: 3333 seconds
#
# Revision: 2
# Processed by: cddbd v1.5.2PL0 Copyright (c) Steve Scherf et al.
# Submitted via: ExactAudioCopy v0.95b3
#
DISCID=fb0d0311
DTITLE=Dizzy Gillespie - Collection Jazz Passion
DYEAR=2005
DGENRE=Jazz
TTITLE0=Cool breeze
TTITLE1=Lullaby of the leaves
TTITLE2=I found a million dollar
TTITLE3=Oh ! Lady, be good
TTITLE4=School days
TTITLE5=Caravan
TTITLE6=Stardust
TTITLE7=Somebody love me
TTITLE8=Sweet Lorraine
TTITLE9=Alone together
TTITLE10=On the Alamo
TTITLE11=Interlude in C
TTITLE12=The champ
TTITLE13=Swing low, Sweet cadillac
TTITLE14=Cripple, crapple, crutch
TTITLE15=She's funny that way
TTITLE16=Ooh-shoo-be-doo-bee
EXTD=
EXTT0=
EXTT1=
EXTT2=
EXTT3=
EXTT4=
EXTT5=
EXTT6=
EXTT7=
EXTT8=
EXTT9=
EXTT10=
EXTT11=
EXTT12=
EXTT13=
EXTT14=
EXTT15=
EXTT16=
PLAYORDER=
